PathFileType	4	(X/Y/Z)	RBDS010\RBDS010runT45.trc
DataRate	CameraRate	NumFrames	NumMarkers	Units	OrigDataRate	OrigDataStartFrame	OrigNumFrames
150.000000	150.000000	4	32	mm	150.000000	1125	4500
Frame#	Time	L.ASIS			L.Heel.Bottom			L.Heel.Lateral			L.Heel.Top			L.Iliac.Crest			L.MT5			L.PSIS			L.Shank.Bottom.Lateral			L.Shank.Bottom.Medial			L.Shank.Top.Lateral			L.Shank.Top.Medial			L.Thigh.Bottom.Lateral			L.Thigh.Bottom.Medial			L.Thigh.Top.Lateral			L.Thigh.Top.Medial			R.ASIS			R.ASY			R.Heel.Bottom			R.Heel.Lateral			R.Heel.Top			R.Iliac.Crest			R.MT1			R.MT5			R.PSIS			R.Shank.Bottom.Lateral			R.Shank.Bottom.Medial			R.Shank.Top.Lateral			R.Shank.Top.Medial			R.Thigh.Bottom.Lateral			R.Thigh.Bottom.Medial			R.Thigh.Top.Lateral			R.Thigh.Top.Medial			
		X1	Y1	Z1	X2	Y2	Z2	X3	Y3	Z3	X4	Y4	Z4	X5	Y5	Z5	X6	Y6	Z6	X7	Y7	Z7	X8	Y8	Z8	X9	Y9	Z9	X10	Y10	Z10	X11	Y11	Z11	X12	Y12	Z12	X13	Y13	Z13	X14	Y14	Z14	X15	Y15	Z15	X16	Y16	Z16	X17	Y17	Z17	X18	Y18	Z18	X19	Y19	Z19	X20	Y20	Z20	X21	Y21	Z21	X22	Y22	Z22	X23	Y23	Z23	X24	Y24	Z24	X25	Y25	Z25	X26	Y26	Z26	X27	Y27	Z27	X28	Y28	Z28	X29	Y29	Z29	X30	Y30	Z30	X31	Y31	Z31	X32	Y32	Z32	

1126	7.500000000000001	2345.399118165544	917.9693855680637	843.6099715814302	1696.060995202831	216.4674017915518	962.0334057210881	1718.082436662921	203.3312085427235	912.6800108116405	1740.782999641938	238.6998165036381	954.9942246796385	2321.287481786074	1017.173272027193	816.1542558299604	1800.650942635484	74.58105225698192	876.8294411544036	2193.076337411162	997.9592565286765	918.8637366395114	1819.112372744568	261.7428004303945	887.8885761329535	1799.801404019704	285.5400070150549	931.7543742630278	1861.133307286282	327.4844484769749	868.7046280349566	1841.518137794606	352.5169860103931	912.5031642681001	2082.976952768042	579.7290924706903	826.3322529846776	2034.093486201301	599.4175113452089	877.0247717318969	2106.659306218869	686.6181988847061	812.8084839031533	2063.038461616998	704.953152205377	862.1370318626367	2358.872638492224	936.4969130762636	1067.459819895939	2330.578836016309	212.7354871383985	1052.935508325822	2157.458423317184	287.736715036284	1062.927437902035	2196.176688684393	285.4545338309149	1102.193981977736	2197.045150253484	316.7211457707618	1056.538718591243	2293.235911287672	1024.820823139268	1116.993465534932	2311.981794366036	151.819982308406	1002.908054831475	2309.967566140322	166.7989731557633	1115.500550108342	2194.471348037364	1002.47867074304	1018.355176620816	2318.556439515622	344.72040833541	1096.574208847323	2284.019112664989	376.0623607913598	1073.988083864701	2372.019672919949	411.0366849101009	1102.255504677991	2333.421966366203	440.4336140329206	1078.758538310724	2474.692030570334	644.9098943018729	1108.356486000917	2429.445174917593	601.7880576170891	1069.887214911373	2389.76917193999	712.2692156486489	1127.272879801962	2347.021508520081	671.3162616968834	1092.086773526435	
1127	7.506666666666667	2349.541552590401	919.7172423728407	844.8666672841114	1685.635639592988	235.1813748550019	958.7424948034335	1706.999217850354	219.8687882031702	909.6132608851979	1732.050078400638	253.7754359107579	951.892722689213	2328.333947758875	1019.495190801292	816.7116480040636	1779.868161072862	83.16611546295898	875.9939413834753	2197.060936499972	1001.634640326741	917.0588711585366	1807.051932251728	272.7206341797395	885.8706675155184	1787.994685628055	295.6633303469908	930.4034085256591	1849.163600607699	338.7699407748869	867.7534371894466	1829.646235879028	363.0382085755505	912.0461347138473	2074.396436851617	589.6224079476381	827.6769456415186	2026.546186595931	611.3500800815332	878.6283991443399	2102.381878824924	695.5950270819955	814.1674970178374	2059.949179213807	715.6819367479034	863.9408218155556	2360.098714976933	940.4240161545374	1068.277783162526	2361.352824897908	202.3148579882385	1052.61421193634	2183.010883261327	262.3919460182266	1060.648756429516	2221.105423852696	263.0520739507879	1100.480798527765	2219.987764876483	294.5593646675164	1054.983508988388	2292.843198929016	1029.401725471662	1116.672857574292	2348.741069555501	140.4550814453632	1001.900232113649	2344.034549857229	154.5294681284164	1114.636170851534	2197.075454151597	1006.565479346342	1016.759851403879	2338.234613572687	332.9855074905415	1096.040917209179	2301.677174924313	361.3915566209207	1072.716433617552	2386.120656290845	403.385322150263	1102.128255789794	2345.740357101404	429.5598656241265	1077.713132665707	2476.942865632157	649.8416033454109	1108.172870556051	2431.115456274722	605.553588455612	1071.588931907175	2391.723542608132	717.0632833460554	1127.022754496276	2348.823544684656	675.3241286134751	1093.047136893086	
1128	7.513333333333334	2353.079468602479	921.4425952580649	845.9714705467878	1676.1295815699	254.4262550230491	955.3547411485413	1696.8835581142	236.9027215310061	906.5799102129754	1724.02509835078	269.4216845486737	948.864289987945	2334.676144708666	1021.720830344372	817.3835983658859	1760.094172180939	93.05880946037956	875.666756518724	2200.576415540054	1005.231475378342	915.526130931901	1796.100284408722	284.0438826475184	883.9710882177383	1777.279335273698	306.4468227658664	928.9779923400582	1838.702695880295	350.05671650485	866.8005209672095	1819.320709523207	373.8547264297354	911.4041704966265	2067.572298554719	598.6242225255238	828.8601105082771	2020.605110834341	622.0789481998783	879.9348251816087	2099.191870804983	703.6760689959527	815.2993925676528	2057.755753235287	725.2455979765188	865.3658520198921	2360.970503270439	943.5357157915173	1069.083923313619	2392.246499390171	192.8112118453145	1052.195519362054	2209.813911370859	237.3675226039693	1058.113853113046	2247.033379707792	240.9146745401252	1098.555832777202	2243.893610961803	272.53963980895	1053.216005708659	2292.35436021949	1033.004007221624	1116.379665589097	2385.662002942229	130.5470293562555	1000.729287266674	2378.33318606357	143.3301982988401	1113.591352839829	2199.340714329678	1010.260472292573	1015.397239375897	2357.895909291643	321.0931426488816	1095.403353736568	2319.612576669941	346.4467473096563	1071.342362948959	2399.818082348506	395.063110416265	1102.034404735595	2358.004526936141	417.9072250959655	1076.664023734464	2477.956158790135	653.2891064497527	1108.295785823777	2431.476721044728	608.0391749952474	1073.467586089993	2392.695867961582	720.695837061529	1126.936550725848	2349.497560499992	678.3465050224173	1094.089648072169	
1129	7.52	2355.967446603757	923.1770724313716	846.8589099650493	1667.1768707652	273.9957635520514	951.912980378602	1687.38145024708	254.2307672480244	903.6478273307052	1716.324991922268	285.5359143104335	945.9432874243981	2340.088364176794	1023.917878737464	818.1503914563257	1741.243906529633	104.1864983723042	875.9798836379497	2203.540999584184	1008.69910468222	914.3053304489987	1786.059969669118	295.6671863936884	882.2569875262174	1767.464209959852	317.9219630614344	927.494763088264	1829.617307399984	361.2266184797127	865.8643914748711	1810.40997597409	384.9225315265713	910.554827616562	2062.603887243247	606.3929331084577	829.8336202620391	2016.281503432164	631.2680859433393	880.8416680443988	2097.143006333906	710.5827838981226	816.1183760110456	2056.417089662651	733.3779793084742	866.2679185167567	2361.529620777631	945.8727690466961	1069.806024380456	2423.014102645683	184.2892452880214	1051.669830601787	2237.65601443938	212.9808459320137	1055.320731020063	2273.787050192506	219.2952379877309	1096.403168887582	2268.597588417532	250.930139162584	1051.23671514709	2291.919703189025	1035.639245605219	1116.129261647475	2422.381998534524	122.1848277125338	999.3907983346616	2412.577621866841	133.2570205390501	1112.349115806843	2201.218458911756	1013.531739675382	1014.301817431815	2377.409116033405	309.1558053499106	1094.638462614636	2337.688178389504	331.3707476604785	1069.869857913821	2413.023973572205	386.1467225781347	1101.956849575419	2370.11399074761	405.585766229553	1075.62780019113	2477.643475541396	655.18747498748	1108.752025401216	2430.492557573991	609.2913790390305	1075.370418866275	2392.626118576527	723.1070747706013	1127.038091467157	2349.016335527533	680.4141416759326	1095.105498937762	
